<?xml version="1.0" standalone="no"?>
<!DOCTYPE svg PUBLIC "-//W3C//DTD SVG 20010904//EN"
 "http://www.w3.org/TR/2001/REC-SVG-20010904/DTD/svg10.dtd">
<svg version="1.0" xmlns="http://www.w3.org/2000/svg"
 width="256.000000pt" height="256.000000pt" viewBox="0 0 256.000000 256.000000"
 preserveAspectRatio="xMidYMid meet">

<g transform="translate(0.000000,256.000000) scale(0.100000,-0.100000)"
fill="#000000" stroke="none">
<path d="M1141 2293 c-41 -45 -57 -69 -48 -71 8 -2 21 -20 29 -40 52 -128 58
-149 58 -227 0 -96 3 -118 18 -123 9 -3 12 65 12 262 0 146 -2 266 -4 266 -2
0 -31 -30 -65 -67z"/>
<path d="M1300 2097 c0 -248 1 -267 18 -267 15 0 17 9 14 70 -4 85 17 180 60
273 l32 68 -62 62 -62 62 0 -268z"/>
<path d="M309 1438 l-82 -83 273 -3 c150 -1 275 0 278 3 10 10 -6 16 -59 21
-80 8 -210 44 -244 68 -16 12 -43 28 -58 36 -16 8 -26 19 -23 27 9 23 -2 14
-85 -69z"/>
<path d="M2080 1469 c-66 -46 -57 -42 -150 -70 -41 -13 -103 -23 -137 -23 -44
-1 -63 -5 -63 -13 0 -10 61 -13 275 -13 151 0 275 3 275 8 0 4 -33 39 -73 78
l-73 71 -54 -38z"/>
<path d="M230 1223 c0 -12 154 -163 160 -155 3 4 30 23 60 43 82 54 162 81
250 83 62 1 75 5 78 19 3 16 -17 17 -272 17 -152 0 -276 -3 -276 -7z"/>
<path d="M1730 1215 c0 -14 24 -20 58 -16 18 3 160 -28 197 -42 35 -13 127
-68 137 -81 7 -11 59 33 127 107 l44 47 -282 0 c-243 0 -281 -2 -281 -15z"/>
<path d="M1175 730 c15 -17 17 -31 11 -98 -6 -79 -50 -228 -80 -274 -15 -23
-14 -25 44 -83 l60 -59 0 267 c0 240 -5 299 -23 255 -4 -10 -6 -10 -6 0 -1 6
-6 12 -13 12 -6 0 -3 -9 7 -20z"/>
<path d="M1307 743 c-10 -9 -9 -523 1 -523 9 0 58 51 90 93 15 21 19 33 12 45
-48 88 -80 213 -80 318 0 68 -6 85 -23 67z"/>
</g>
</svg>
